<svg width="72" height="72" viewBox="0 0 72 72" fill="none" xmlns="http://www.w3.org/2000/svg">
<path d="M17.2169 34.4337C26.7255 34.4337 34.4337 26.7255 34.4337 17.2169C34.4337 7.70825 26.7255 0 17.2169 0C7.70825 0 0 7.70825 0 17.2169C0 26.7255 7.70825 34.4337 17.2169 34.4337Z" fill="black"/>
<path d="M54.2118 71.4285C63.7204 71.4285 71.4286 63.7202 71.4286 54.2116C71.4286 44.703 63.7204 36.9948 54.2118 36.9948C44.7032 36.9948 36.9949 44.703 36.9949 54.2116C36.9949 63.7202 44.7032 71.4285 54.2118 71.4285Z" fill="black"/>
<path d="M0 36.9948H34.4336V53.2155C34.4336 63.2745 26.2796 71.4287 16.2208 71.4287H0V36.9948Z" fill="black"/>
<path d="M36.995 18.2129C36.995 8.15418 45.1489 0 55.2079 0H71.4286V34.4337H36.995V18.2129Z" fill="black"/>
<path d="M61.0987 54.68C61.0987 59.12 58.1787 62.24 53.9787 62.24C49.7987 62.24 46.9187 59.14 46.9187 54.68C46.9187 50.24 49.8187 47.12 53.9987 47.12C58.1787 47.12 61.0987 50.22 61.0987 54.68ZM58.3987 54.68C58.3987 51.56 56.6787 49.58 53.9987 49.58C51.3187 49.58 49.5987 51.56 49.5987 54.68C49.5987 57.8 51.3187 59.78 53.9987 59.78C56.6787 59.78 58.3987 57.76 58.3987 54.68Z" fill="#EAEAEA"/>
<path d="M18.0133 19.96H14.7933V25H12.2333V10.38H18.0133C20.9533 10.38 22.8533 12.3 22.8533 15.16C22.8533 17.98 20.9333 19.96 18.0133 19.96ZM17.5133 12.66H14.7933V17.68H17.4733C19.2333 17.68 20.1733 16.74 20.1733 15.14C20.1733 13.54 19.2133 12.66 17.5133 12.66Z" fill="#EAEAEA"/>
</svg>
