<svg width="100" height="100" viewBox="0 0 100 100" fill="none" xmlns="http://www.w3.org/2000/svg">
<rect width="100" height="100" fill="#EAEAEA"/>
<path d="M31.2169 48.4337C40.7255 48.4337 48.4337 40.7255 48.4337 31.2169C48.4337 21.7083 40.7255 14 31.2169 14C21.7082 14 14 21.7083 14 31.2169C14 40.7255 21.7082 48.4337 31.2169 48.4337Z" fill="black"/>
<path d="M68.2118 85.4285C77.7204 85.4285 85.4286 77.7202 85.4286 68.2116C85.4286 58.703 77.7204 50.9948 68.2118 50.9948C58.7032 50.9948 50.9949 58.703 50.9949 68.2116C50.9949 77.7202 58.7032 85.4285 68.2118 85.4285Z" fill="black"/>
<path d="M14 50.9948H48.4336V67.2155C48.4336 77.2745 40.2796 85.4287 30.2208 85.4287H14V50.9948Z" fill="black"/>
<path d="M50.995 32.2129C50.995 22.1542 59.1489 14 69.2079 14H85.4286V48.4337H50.995V32.2129Z" fill="black"/>
<path d="M75.0987 68.68C75.0987 73.12 72.1787 76.24 67.9787 76.24C63.7987 76.24 60.9187 73.14 60.9187 68.68C60.9187 64.24 63.8187 61.12 67.9987 61.12C72.1787 61.12 75.0987 64.22 75.0987 68.68ZM72.3987 68.68C72.3987 65.56 70.6787 63.58 67.9987 63.58C65.3187 63.58 63.5987 65.56 63.5987 68.68C63.5987 71.8 65.3187 73.78 67.9987 73.78C70.6787 73.78 72.3987 71.76 72.3987 68.68Z" fill="#EAEAEA"/>
<path d="M32.0133 33.96H28.7933V39H26.2333V24.38H32.0133C34.9533 24.38 36.8533 26.3 36.8533 29.16C36.8533 31.98 34.9333 33.96 32.0133 33.96ZM31.5133 26.66H28.7933V31.68H31.4733C33.2333 31.68 34.1733 30.74 34.1733 29.14C34.1733 27.54 33.2133 26.66 31.5133 26.66Z" fill="#EAEAEA"/>
</svg>
